name analog
datacolumns 19
datarows 28
range 0.3835 0.397
endheader
time	ground_force_vx	ground_force_vy	ground_force_vz	ground_force_px	ground_force_py	ground_force_pz	l_ground_force_vx	l_ground_force_vy	l_ground_force_vz	l_ground_force_px	l_ground_force_py	l_ground_force_pz	ground_torque_x	ground_torque_y	ground_torque_z	l_ground_torque_x	l_ground_torque_y	l_ground_torque_z
0.3835	-0.0	-0.0	-0.0	-10.740511894226074	24.80520820617676	-710.64453125	5.007549285888672	-23.58189010620117	-329.3701171875	-0.0	-0.0	-0.0	-0.0	-0.0	-0.0	103696.34375	-11466.5439453125	1630.0516357421875
0.384	-0.0	-0.0	-0.0	-11.011570930480955	24.97146987915039	-708.5728149414062	4.967803955078125	-24.01421546936035	-331.3815612792969	-0.0	-0.0	-0.0	-0.0	-0.0	-0.0	104206.3671875	-11101.05859375	1615.6826171875
0.3845	-0.0	-0.0	-0.0	-11.07409381866455	24.75429344177246	-706.2544555664062	4.248658657073975	-24.15127182006836	-333.63299560546875	-0.0	-0.0	-0.0	-0.0	-0.0	-0.0	104962.6484375	-10823.40625	1427.0869140625
0.385	-0.0	-0.0	-0.0	-10.960769653320312	24.715517044067383	-702.6275024414062	4.327645301818848	-24.61310195922852	-336.775634765625	-0.0	-0.0	-0.0	-0.0	-0.0	-0.0	105621.2578125	-10720.80859375	1391.0360107421875
0.3855	-0.0	-0.0	-0.0	-11.18980598449707	24.905839920043945	-701.110595703125	4.386336803436279	-24.867380142211918	-337.5914611816406	-0.0	-0.0	-0.0	-0.0	-0.0	-0.0	106120.3125	-10259.0517578125	1272.35693359375
0.386	-0.0	-0.0	-0.0	-10.946846961975098	25.617509841918945	-696.9761352539062	3.87367844581604	-24.86745262145996	-339.685791015625	-0.0	-0.0	-0.0	-0.0	-0.0	-0.0	106752.625	-10144.6630859375	1235.747802734375
0.3865	-0.0	-0.0	-0.0	-10.870267868041992	25.38969993591309	-693.8466796875	3.321683168411255	-25.21089172363281	-343.216064453125	-0.0	-0.0	-0.0	-0.0	-0.0	-0.0	107514.8671875	-10077.28515625	1113.3472900390625
0.387	-0.0	-0.0	-0.0	-10.794471740722656	25.797460556030277	-691.5263671875	3.7267932891845694	-25.191722869873047	-346.00927734375	-0.0	-0.0	-0.0	-0.0	-0.0	-0.0	108418.078125	-9621.1025390625	1037.859130859375
0.3875	-0.0	-0.0	-0.0	-10.565072059631348	26.102479934692383	-687.8431396484375	3.282299041748047	-25.721942901611328	-347.4058837890625	-0.0	-0.0	-0.0	-0.0	-0.0	-0.0	108778.421875	-9477.45703125	961.5894775390624
0.388	-0.0	-0.0	-0.0	-10.51399040222168	25.885963439941406	-683.353759765625	3.065678834915161	-25.85771751403809	-350.3939514160156	-0.0	-0.0	-0.0	-0.0	-0.0	-0.0	109822.796875	-9495.47265625	826.20556640625
0.3885	-0.0	-0.0	-0.0	-10.131885528564451	26.30559730529785	-682.8991088867188	3.12577486038208	-26.330265045166016	-354.4606628417969	-0.0	-0.0	-0.0	-0.0	-0.0	-0.0	110615.0078125	-9135.365234375	707.47216796875
0.389	-0.0	-0.0	-0.0	-10.488794326782228	25.99986267089844	-678.5157470703125	2.938037395477295	-26.348220825195312	-356.6663513183594	-0.0	-0.0	-0.0	-0.0	-0.0	-0.0	111637.0390625	-9170.845703125	806.9411010742188
0.3895	-0.0	-0.0	-0.0	-10.449178695678713	26.44530868530273	-676.0387573242188	3.026851177215576	-27.0865535736084	-359.9606628417969	-0.0	-0.0	-0.0	-0.0	-0.0	-0.0	112778.7265625	-9274.4365234375	829.4385986328125
0.39	-0.0	-0.0	-0.0	-10.270392417907717	26.790363311767575	-673.3197021484375	3.083218574523926	-27.340951919555664	-365.2552490234375	-0.0	-0.0	-0.0	-0.0	-0.0	-0.0	113567.625	-9135.1015625	859.1266479492188
0.3905	-0.0	-0.0	-0.0	-10.894608497619627	26.74166488647461	-672.2080688476562	3.371009826660156	-27.926603317260746	-367.0683898925781	-0.0	-0.0	-0.0	-0.0	-0.0	-0.0	114805.8359375	-9209.6044921875	911.233642578125
0.391	-0.0	-0.0	-0.0	-10.972892761230469	26.663572311401367	-671.5985717773438	3.864446640014648	-27.997974395751957	-372.5012512207031	-0.0	-0.0	-0.0	-0.0	-0.0	-0.0	116146.578125	-9490.091796875	1056.14892578125
0.3915	-0.0	-0.0	-0.0	-10.962640762329102	26.152908325195312	-669.5203857421875	4.57420539855957	-28.566490173339844	-376.0160217285156	-0.0	-0.0	-0.0	-0.0	-0.0	-0.0	117537.921875	-9740.7666015625	1275.2962646484375
0.392	-0.0	-0.0	-0.0	-11.099785804748535	26.27963638305664	-667.6988525390625	5.283943176269531	-28.85868453979492	-380.0926513671875	-0.0	-0.0	-0.0	-0.0	-0.0	-0.0	119046.53125	-10031.5166015625	1522.236083984375
0.3925	-0.0	-0.0	-0.0	-10.986873626708984	26.368629455566406	-667.2122802734375	5.811954498291016	-29.37265396118164	-385.902587890625	-0.0	-0.0	-0.0	-0.0	-0.0	-0.0	120382.40625	-10375.302734375	1666.953857421875
0.393	-0.0	-0.0	-0.0	-10.987006187438965	25.880542755126957	-665.744140625	6.070903301239014	-29.764408111572266	-389.8050231933594	-0.0	-0.0	-0.0	-0.0	-0.0	-0.0	121350.9765625	-10344.861328125	1870.7509765625
0.3935	-0.0	-0.0	-0.0	-11.024606704711914	26.12941169738769	-665.9489135742188	6.984803676605225	-30.49770736694336	-393.6454772949219	-0.0	-0.0	-0.0	-0.0	-0.0	-0.0	123041.8125	-10832.109375	2073.7041015625
0.394	-0.0	-0.0	-0.0	-11.381522178649902	25.65520477294922	-663.4769897460938	7.1234893798828125	-30.674135208129883	-397.1832275390625	-0.0	-0.0	-0.0	-0.0	-0.0	-0.0	124075.171875	-11065.98828125	2227.029541015625
0.3945	-0.0	-0.0	-0.0	-11.315267562866213	25.6611270904541	-660.8330688476562	8.034287452697754	-31.165685653686523	-400.3258056640625	-0.0	-0.0	-0.0	-0.0	-0.0	-0.0	125517.2578125	-11105.8583984375	2434.23583984375
0.395	-0.0	-0.0	-0.0	-10.616050720214844	25.313034057617188	-661.3582763671875	8.034348487854004	-31.90811538696289	-405.8650512695313	-0.0	-0.0	-0.0	-0.0	-0.0	-0.0	126638.0	-11321.2197265625	2543.9541015625
0.3955	-0.0	-0.0	-0.0	-10.950392723083496	24.852659225463867	-658.5055541992188	8.681467056274414	-32.40024185180664	-408.8565673828125	-0.0	-0.0	-0.0	-0.0	-0.0	-0.0	127715.5390625	-11939.1171875	2739.830322265625
0.396	-0.0	-0.0	-0.0	-10.489654541015623	24.533185958862305	-658.2389526367188	8.770074844360352	-32.653221130371094	-411.4509887695313	-0.0	-0.0	-0.0	-0.0	-0.0	-0.0	128624.6640625	-11999.9267578125	2837.02490234375
0.3965	-0.0	-0.0	-0.0	-10.563957214355469	24.94154930114746	-656.8554077148438	8.997930526733398	-33.032310485839844	-415.4904174804688	-0.0	-0.0	-0.0	-0.0	-0.0	-0.0	129704.8203125	-12236.6796875	2884.019287109375
0.397	-0.0	-0.0	-0.0	-10.408854484558104	24.443653106689453	-654.4423828125	9.568204879760742	-32.96900177001953	-416.28759765625	-0.0	-0.0	-0.0	-0.0	-0.0	-0.0	130550.8125	-12321.1142578125	2854.710693359375
